<svg viewBox="0 0 569 512" xmlns="http://www.w3.org/2000/svg"><g fill="none" fill-rule="evenodd"><g fill="#087EA4" fill-rule="nonzero"><path d="M285.5 201c-30.099 0-54.5 24.401-54.5 54.5 0 30.1 24.401 54.5 54.5 54.5 30.1 0 54.5-24.4 54.5-54.5 0-30.099-24.4-54.5-54.5-54.5"/><path d="M568.96 255.994c0-42.786-39.622-80.313-102.708-105.009.843-5.562 1.606-11.063 2.148-16.464 6.222-61.48-8.591-105.852-41.69-124.967C389.678-11.83 337.37 3.69 284.48 46.015 231.59 3.69 179.283-11.83 142.25 9.554c-33.099 19.115-47.912 63.487-41.69 124.967.542 5.401 1.285 10.922 2.148 16.504-5.259 2.008-10.417 4.137-15.375 6.365C31.011 182.71 0 217.766 0 255.994c0 42.787 39.622 80.314 102.708 105.01-.863 5.561-1.606 11.062-2.148 16.463-6.222 61.48 8.591 105.853 41.69 124.968 11.379 6.453 24.275 9.752 37.354 9.557 31.352 0 67.964-16.504 104.876-46.019 36.892 29.515 73.524 46.02 104.916 46.02 13.08.192 25.973-3.107 37.354-9.558 33.099-19.114 47.912-63.486 41.69-124.967-.542-5.401-1.305-10.902-2.148-16.463 63.086-24.656 102.708-62.242 102.708-105.01"/></g></g></svg>
